<svg width="64" height="64" viewBox="0 0 64 64" fill="none" xmlns="http://www.w3.org/2000/svg">
<path fill-rule="evenodd" clip-rule="evenodd" d="M31.9998 64.001C49.673 64.001 63.9998 49.6742 63.9998 32.001C63.9998 14.3279 49.673 0.000976562 31.9998 0.000976562C14.3266 0.000976562 -0.000244141 14.3279 -0.000244141 32.001C-0.000244141 49.6742 14.3266 64.001 31.9998 64.001ZM46.8282 26.8294C48.3902 25.2673 48.3902 22.7347 46.8282 21.1725C45.2662 19.6105 42.7334 19.6105 41.1714 21.1725L27.9998 34.3442L22.8282 29.1725C21.2661 27.6105 18.7334 27.6105 17.1713 29.1725C15.6092 30.7347 15.6092 33.2674 17.1713 34.8294L25.1713 42.8294C26.7334 44.3914 29.2661 44.3914 30.8282 42.8294L46.8282 26.8294Z" fill="#22C55E"/>
</svg>
