<svg width="57" height="49" viewBox="0 0 57 49" fill="none" xmlns="http://www.w3.org/2000/svg">
<g filter="url(#filter0_d_13799_11236)">
<path d="M45.9608 3.17464C42.7737 2.04727 39.4484 2.64815 36.5584 4.85489C35.0304 3.44103 32.6045 2.21841 28.7548 2.02465C23.22 1.7457 18.0701 3.84488 14.6272 7.78188C12.2732 10.4739 11.046 13.6703 11.2851 16.4201C10.9301 16.5106 10.573 16.6176 10.217 16.7516C6.5265 18.1358 4.20716 21.3254 4.0121 25.2845C3.84176 28.7402 5.47586 31.726 8.49352 33.4769C11.3614 35.1393 14.9747 35.4263 18.0931 34.3909C19.0066 34.0871 19.8743 33.6636 20.6725 33.1339C22.152 34.693 23.411 36.3247 24.749 40.3263L24.9288 40.8624L25.3715 40.5304C29.314 37.5735 33.1313 35.4703 36.7157 34.2801C39.7815 33.2623 42.7798 32.8775 45.6288 33.1359L46.4553 33.2105L46.0071 32.4865C44.9412 30.7683 44.0131 26.9263 45.1769 23.6236C45.512 23.5801 45.8457 23.5037 46.1788 23.3934C47.7257 22.88 49.2319 21.6604 50.4475 19.9052C52.439 17.0275 53.2032 13.3381 52.441 10.2759C51.6314 7.02267 49.1471 4.30226 45.9608 3.17464Z" fill="white"/>
<path d="M20.5337 33.2284C20.5337 33.2284 20.414 33.3133 20.1897 33.4729C20.077 33.554 19.9374 33.6546 19.762 33.7558C19.5878 33.8584 19.392 33.9908 19.1548 34.1054C19.037 34.1662 18.9132 34.2301 18.7833 34.2974C18.651 34.3615 18.509 34.4188 18.3622 34.4841C18.0695 34.6204 17.7375 34.7279 17.3821 34.8523C16.6656 35.0815 15.8221 35.2637 14.874 35.3454C13.9266 35.423 12.8709 35.4039 11.7587 35.1886C10.6489 34.9747 9.47158 34.595 8.34559 33.9267C8.0587 33.7707 7.79096 33.5714 7.51182 33.3832C7.24771 33.1716 6.97221 32.9675 6.72312 32.7217C6.21162 32.2485 5.73598 31.7001 5.34417 31.0721C4.95285 30.4469 4.60975 29.761 4.39482 29.0194C4.17772 28.2811 4.03379 27.5053 4.00738 26.7185C3.94995 25.1536 4.22787 23.6085 4.83606 22.2595C5.4331 20.9072 6.34004 19.7821 7.35311 18.9432C7.86389 18.5286 8.39018 18.1619 8.93706 17.8799C9.07057 17.803 9.20747 17.7349 9.34558 17.6739C9.48297 17.611 9.61745 17.5452 9.75411 17.4871C10.0315 17.3826 10.2993 17.2665 10.5745 17.1888C11.1166 17.0069 11.6589 16.9054 12.1779 16.8229C12.701 16.7624 13.2043 16.7239 13.6848 16.747C14.6445 16.7764 15.502 16.9604 16.2144 17.2248C16.9285 17.4876 17.4931 17.8307 17.9229 18.1443C18.132 18.3119 18.3213 18.4517 18.4642 18.6014C18.6118 18.7442 18.74 18.8598 18.8267 18.9714C19.0075 19.1827 19.1037 19.2953 19.1037 19.2953C19.1037 19.2953 18.9944 19.1973 18.7889 19.0128C18.6905 18.9158 18.5498 18.8181 18.3898 18.6974C18.235 18.5703 18.0332 18.4572 17.8148 18.3202C17.3666 18.0684 16.794 17.8053 16.0969 17.6291C15.4013 17.452 14.5849 17.3615 13.6923 17.4148C13.2462 17.4329 12.7822 17.51 12.3058 17.604C11.8331 17.7198 11.3436 17.8498 10.86 18.0526C10.614 18.1403 10.3776 18.2647 10.1319 18.375C10.0114 18.4361 9.89319 18.5042 9.77252 18.5688C9.65113 18.6316 9.53216 18.7007 9.41585 18.7779C8.93754 19.0611 8.48613 19.4169 8.05119 19.8065C7.19004 20.5961 6.44472 21.6033 5.96083 22.7817C5.46678 23.9528 5.24531 25.2996 5.29353 26.6607C5.35096 28.017 5.72192 29.3064 6.37978 30.3793C6.69744 30.9221 7.08997 31.4056 7.51934 31.8343C7.72651 32.057 7.96227 32.2447 8.18519 32.4425C8.42555 32.6184 8.65332 32.8082 8.90314 32.9595C9.87744 33.6076 10.9305 34.0242 11.9443 34.2962C12.96 34.5703 13.9477 34.6706 14.8495 34.6779C15.7519 34.6819 16.5723 34.5894 17.2823 34.4424C17.9893 34.2869 18.5953 34.1089 19.0736 33.9147C19.3183 33.8305 19.5233 33.7254 19.707 33.6465C19.8919 33.5689 20.0409 33.4882 20.1618 33.4236C20.4048 33.2962 20.5337 33.2284 20.5337 33.2284Z" fill="#452210"/>
<path d="M52.4443 10.3276C52.1126 9.88173 51.7441 9.43717 51.3321 8.99512C53.3057 14.7325 48.992 21.1288 42.6518 21.4598C37.4483 21.7317 25.6736 26.3877 22.0972 31.68C28.4819 26.6606 34.8705 24.7419 42.955 24.104C43.7277 24.0432 44.4226 24.0301 45.0499 24.0555C45.0904 23.9208 45.1284 23.7854 45.1752 23.6522C45.5103 23.6087 45.8439 23.5323 46.1771 23.422C47.724 22.9086 49.2301 21.689 50.4458 19.9338C52.4322 17.0631 53.1974 13.3852 52.4443 10.3276Z" fill="white"/>
<path d="M45.5335 23.224C45.5335 23.224 45.6498 23.2003 45.8672 23.1561C46.0833 23.1058 46.3998 23.0174 46.7843 22.8533C47.5517 22.5306 48.5858 21.8433 49.5015 20.6586C50.4239 19.4918 51.2274 17.8419 51.5935 15.9053C51.6871 15.4223 51.7486 14.9215 51.775 14.4096C51.8061 13.8979 51.8014 13.3744 51.753 12.8472C51.665 11.7894 51.4174 10.7191 50.9674 9.71763C50.0644 7.69761 48.4812 6.16036 46.8245 5.23077C45.1611 4.27956 43.4095 3.95286 41.9581 4.00589C40.4953 4.06118 39.3366 4.48212 38.577 4.83672C38.1994 5.02444 37.907 5.17925 37.7187 5.30138C37.5271 5.41699 37.4243 5.47856 37.4243 5.47856C37.4243 5.47856 37.5157 5.4004 37.6875 5.25414C37.8563 5.10109 38.1243 4.90105 38.4805 4.65351C39.198 4.18206 40.3402 3.5754 41.8999 3.34093C42.6755 3.22532 43.5466 3.2105 44.4681 3.34419C44.9304 3.40401 45.3995 3.52011 45.879 3.65682C46.3527 3.81188 46.8391 3.98553 47.3125 4.22428C48.2689 4.68065 49.2015 5.33003 50.0411 6.15181C50.8766 6.97711 51.6129 7.98913 52.1349 9.15445C52.4026 9.73246 52.5892 10.3441 52.7326 10.9488C52.8746 11.5517 52.948 12.1596 52.9822 12.7562C53.0181 13.3531 52.9996 13.9409 52.94 14.5096C52.8841 15.0788 52.7869 15.6299 52.6527 16.1557C52.124 18.2651 51.0932 19.968 49.9781 21.1072C48.8679 22.266 47.6796 22.8387 46.848 23.0511C46.4298 23.1609 46.0981 23.1983 45.8747 23.2129C45.6527 23.2202 45.5335 23.224 45.5335 23.224Z" fill="#452210"/>
<path d="M21.1628 33.6836C21.1628 33.6836 21.3125 33.8316 21.596 34.1134C21.8788 34.3973 22.296 34.818 22.7818 35.4199C23.2546 36.0313 23.7605 36.8478 24.2267 37.8586C24.3398 38.1119 24.4479 38.3778 24.5645 38.651C24.6219 38.7879 24.6805 38.9269 24.7401 39.0682C24.7934 39.2114 24.847 39.3569 24.9022 39.5044C24.9274 39.5718 24.9529 39.6399 24.9783 39.7085L25.0311 39.8429C25.0653 39.9286 25.0995 40.0153 25.1339 40.1033C25.1404 40.1772 25.192 40.1091 25.2291 40.0852L25.3449 39.9947C25.4266 39.9314 25.5092 39.8671 25.5926 39.8022C27.789 38.1629 30.537 36.3256 33.9072 34.8587C35.5903 34.1292 37.4318 33.5029 39.4097 33.1049C39.904 33.0061 40.4085 32.9322 40.9168 32.8556C41.1727 32.8287 41.4298 32.8018 41.6876 32.7746L42.0763 32.7357L42.4676 32.7171C42.7293 32.705 42.9919 32.693 43.256 32.6806C43.5204 32.6837 43.7857 32.6867 44.0518 32.6897L44.4494 32.6947L44.4605 32.6937L44.477 32.6912L44.4724 32.6864L44.4714 32.6877L44.3459 32.3751C44.1787 31.9018 44.0232 31.4216 43.9149 30.9288C43.626 29.7303 43.5279 28.5069 43.5723 27.3026C43.6132 26.7008 43.6697 26.1019 43.7998 25.5179C43.8327 25.3721 43.8562 25.2248 43.8965 25.0816L44.0021 24.7079L44.0183 24.6802L43.989 24.6719L43.9784 24.6707L43.8148 24.6782L43.4271 24.6958C43.1691 24.7084 42.9122 24.7207 42.6568 24.733C42.4019 24.7554 42.1487 24.7775 41.8965 24.7996C41.3927 24.8474 40.8916 24.877 40.4005 24.9371C39.9093 24.9999 39.4238 25.0622 38.9438 25.1238C35.1124 25.6689 31.7294 26.6364 29.0141 27.7806C28.844 27.8507 28.6754 27.9196 28.5092 27.988C28.3456 28.0634 28.1847 28.138 28.0253 28.2116C27.7074 28.3607 27.3941 28.4989 27.0961 28.6454C26.5077 28.9573 25.9388 29.2272 25.4358 29.5338C25.1809 29.6815 24.9352 29.824 24.6975 29.9615C24.4671 30.1095 24.2449 30.2518 24.0321 30.3885C23.6001 30.6531 23.2308 30.9336 22.888 31.1718C22.542 31.4055 22.2611 31.6498 22.0038 31.8438C21.7462 32.0378 21.54 32.217 21.374 32.3622C21.0389 32.6502 20.8618 32.8023 20.8618 32.8023C20.8618 32.8023 21.0261 32.6354 21.3365 32.3195C21.4918 32.1599 21.6849 31.9637 21.9277 31.7488C22.1705 31.5344 22.4363 31.2663 22.7671 31.0052C23.0937 30.74 23.4477 30.4292 23.8649 30.1319C24.0709 29.9788 24.2858 29.8192 24.5092 29.6536C24.7401 29.4983 24.9798 29.3372 25.2276 29.1706C25.7188 28.8258 26.2768 28.516 26.8564 28.1621C27.1513 27.9948 27.4607 27.8352 27.7755 27.6648C27.9335 27.5803 28.0934 27.4949 28.2555 27.4084C28.421 27.3293 28.5882 27.2491 28.7575 27.1684C31.459 25.8478 34.8767 24.6928 38.7795 24.01C39.2684 23.9321 39.764 23.8534 40.2636 23.7738C40.7654 23.6984 41.2757 23.6539 41.7901 23.5923C42.0474 23.5637 42.3062 23.535 42.5662 23.5059C42.8274 23.4833 43.0893 23.4692 43.3527 23.4503C43.6881 23.429 44.0246 23.4071 44.3626 23.3855C44.6195 23.3699 44.8775 23.3541 45.1354 23.3385L45.5247 23.3146L45.7203 23.3028L45.769 23.2998L45.7779 23.3104L45.77 23.334L45.7382 23.4282C45.6536 23.6805 45.5683 23.9334 45.4833 24.1869L45.3549 24.5689L45.2291 24.9692L45.1974 25.0698L45.1838 25.1195L45.1589 25.213L45.1085 25.4007C45.0743 25.5259 45.0566 25.6563 45.0292 25.7842C44.9204 26.2959 44.8775 26.8277 44.8443 27.3622C44.8145 28.434 44.9059 29.5385 45.1659 30.6124C45.2621 31.0549 45.4014 31.4804 45.5453 31.8966C45.564 31.9483 45.5858 31.9981 45.6054 32.0489L45.636 32.1248L45.6512 32.1627L45.6844 32.2383L45.8276 32.5653L46.0043 32.8963C46.24 33.3418 46.4743 33.7681 46.7065 34.188C46.1906 34.1483 45.6762 34.1083 45.1642 34.0686C44.9081 34.0488 44.6527 34.0287 44.3978 34.0088L44.0183 33.9998C43.7675 33.9937 43.5182 33.988 43.2694 33.9819C43.0203 33.99 42.7724 33.998 42.5255 34.0058L42.1553 34.0174L41.7877 34.0485C41.543 34.0694 41.2997 34.0905 41.0567 34.1113C40.5737 34.1757 40.093 34.2347 39.6203 34.3184C37.7296 34.6547 35.9423 35.2015 34.2872 35.8499C30.9734 37.1519 28.1852 38.8189 25.9267 40.3121C25.7316 40.4438 25.539 40.5737 25.3488 40.7019C25.2512 40.7675 25.155 40.8326 25.059 40.8972C24.9691 40.9454 24.8467 41.0985 24.8356 40.9052C24.7033 40.4835 24.5746 40.0729 24.4491 39.6736C24.4038 39.5245 24.3592 39.3775 24.3146 39.233C24.265 39.0908 24.2158 38.951 24.1676 38.8133C24.0697 38.5381 23.98 38.2692 23.8846 38.0134C23.4918 36.9956 23.0559 36.1696 22.6357 35.5343C22.2022 34.909 21.8187 34.4554 21.5596 34.149C21.2999 33.8442 21.1628 33.6836 21.1628 33.6836Z" fill="#452210"/>
<path d="M30.4678 3.6156C36.8372 2.72371 43.4839 12.8763 35.0514 19.0236C36.3417 15.4196 40.5629 5.79143 30.4678 3.6156Z" fill="white"/>
<path d="M36.9142 17.3291C36.9142 17.3291 37.0143 17.2052 37.2018 16.972C37.2888 16.8493 37.3942 16.696 37.5137 16.5133C37.622 16.3218 37.7557 16.1087 37.8728 15.8486C38.1182 15.337 38.36 14.6803 38.5149 13.8917C38.6658 13.1056 38.7465 12.186 38.6268 11.1949C38.582 10.6983 38.4613 10.1904 38.3154 9.67522C38.1563 9.16205 37.9358 8.65164 37.6661 8.15078C37.3789 7.65947 37.0397 7.18199 36.637 6.73943C36.2227 6.3097 35.764 5.90057 35.2409 5.55326C34.1977 4.85588 32.9513 4.36482 31.6073 4.06878C30.2596 3.78329 28.8113 3.67598 27.3349 3.71368C24.381 3.77902 21.6144 4.5719 19.3619 5.82367C18.2374 6.45169 17.2284 7.1737 16.3673 7.95275C15.5059 8.73181 14.7809 9.55283 14.1912 10.3613C13.0056 11.9792 12.3889 13.5411 12.1301 14.6524C12.0536 14.9291 12.0242 15.1824 11.9792 15.4C11.9547 15.6197 11.929 15.8069 11.9166 15.9582C11.9026 16.2618 11.8951 16.4234 11.8951 16.4234C11.8951 16.4234 11.8835 16.2615 11.8614 15.9572C11.8563 15.8039 11.8604 15.6141 11.8609 15.3882C11.8818 15.1648 11.8842 14.9022 11.9326 14.6129C12.0775 13.4526 12.5566 11.7734 13.6622 9.98131C14.2113 9.08666 14.9106 8.16636 15.769 7.28327C16.627 6.40017 17.6564 5.56934 18.8284 4.84256C21.1702 3.38974 24.1479 2.44633 27.2998 2.37898C28.8707 2.33877 30.4125 2.47247 31.8765 2.82153C33.3342 3.18091 34.7095 3.77751 35.8534 4.62291C36.4269 5.0436 36.9285 5.53592 37.3707 6.0516C37.8018 6.58036 38.1546 7.1453 38.441 7.71828C38.7109 8.30056 38.9161 8.88611 39.0511 9.46362C39.1742 10.0431 39.2614 10.6053 39.2689 11.1456C39.3137 12.2242 39.1432 13.1898 38.9091 13.9962C38.6721 14.8052 38.3535 15.4566 38.0477 15.9514C37.9006 16.2035 37.7402 16.406 37.6096 16.5857C37.4681 16.7571 37.3443 16.8981 37.243 17.0099C37.0283 17.2182 36.9142 17.3291 36.9142 17.3291Z" fill="#452210"/>
</g>
<defs>
<filter id="filter0_d_13799_11236" x="-2" y="0" width="61" height="51" filterUnits="userSpaceOnUse" color-interpolation-filters="sRGB">
<feFlood flood-opacity="0" result="BackgroundImageFix"/>
<feColorMatrix in="SourceAlpha" type="matrix" values="0 0 0 0 0 0 0 0 0 0 0 0 0 0 0 0 0 0 127 0" result="hardAlpha"/>
<feOffset dy="4"/>
<feGaussianBlur stdDeviation="2"/>
<feComposite in2="hardAlpha" operator="out"/>
<feColorMatrix type="matrix" values="0 0 0 0 0 0 0 0 0 0 0 0 0 0 0 0 0 0 0.25 0"/>
<feBlend mode="normal" in2="BackgroundImageFix" result="effect1_dropShadow_13799_11236"/>
<feBlend mode="normal" in="SourceGraphic" in2="effect1_dropShadow_13799_11236" result="shape"/>
</filter>
</defs>
</svg>
